<svg xmlns="http://www.w3.org/2000/svg" viewBox="0 0 24 24" width="24" height="24" fill="none">
  <!-- traced from 04-commerce-ai__31__A-propos.png | stroke≈1.327 in 24-grid -->
  <path d="M14.488 19.630 L13.161 20.294 L11.834 20.294 L10.507 20.294 L9.180 19.962 L7.853 19.298 L6.526 18.303 L5.199 17.308 L4.204 15.981 L3.540 14.654 L3.540 13.327 L3.209 12.000 L3.209 10.673 L3.540 9.346 L4.204 8.019 L5.199 6.692 L6.526 5.365 L7.853 4.370 L9.180 3.706 L10.507 3.375 L11.834 3.375 L13.161 3.375 L14.488 3.706 L15.815 4.370 L17.142 5.365 L18.469 6.692 L19.464 8.019 L19.796 9.346 L20.128 10.673 L20.460 12.000 L20.128 13.327 L19.796 14.654 L19.133 15.981" fill="none" stroke="#111827" stroke-width="1.327" stroke-linecap="round" stroke-linejoin="round"/>
  <path d="M11.834 10.673 L11.834 11.005 L11.834 11.337 L11.834 11.668 L11.834 12.000 L11.834 12.332 L11.834 12.663 L11.834 12.995 L11.834 13.327 L11.834 13.659 L11.834 13.990 L11.834 14.322 L11.834 14.654 L11.834 14.986 L11.834 15.317 L11.834 15.649" fill="none" stroke="#111827" stroke-width="1.327" stroke-linecap="round" stroke-linejoin="round"/>
  <circle cx="11.751" cy="7.853" r="0.927" fill="#FF6A00" stroke="none" data-ayrovi-signature="true"/>
  <circle cx="17.703" cy="18.898" r="1.607" fill="#FF6A00" stroke="none" data-ayrovi-signature="true"/>
</svg>
